<svg viewBox="0 0 18 10" xmlns="http://www.w3.org/2000/svg"><path d="M16.41.687c.109-.38 0-.662-.534-.662h-1.76a.757.757 0 0 0-.766.51 15.135 15.135 0 0 1-2.163 3.676c-.41.418-.6.551-.822.551-.111 0-.281-.134-.281-.516V.687c0-.458-.126-.662-.5-.662H6.82a.428.428 0 0 0-.448.412c0 .433.634.534.7 1.754v2.647c0 .58-.1.687-.326.687-.6 0-2.05-2.239-2.911-4.8-.173-.5-.343-.7-.795-.7H1.28c-.5 0-.6.241-.6.51 0 .476.6 2.84 2.782 5.962a6.838 6.838 0 0 0 5.37 3.288c1.12 0 1.259-.256 1.259-.7 0-2.037-.1-2.229.46-2.229.26 0 .708.134 1.755 1.161 1.2 1.221 1.393 1.766 2.062 1.766h1.757c.5 0 .756-.256.61-.762-.335-1.065-2.6-3.255-2.7-3.4-.261-.342-.186-.494 0-.8A22.472 22.472 0 0 0 16.41.687z"/></svg>
